<svg viewBox="0 0 180 130" xmlns="http://www.w3.org/2000/svg">
    <style>
    g {
        fill: gray;
    }
    </style>
    <g transform="translate(10, 10)">
        <path d="M   0,5 c 2,-4 8, 5 10,0 l 0,5 -10,0"/>
        <path d="M  10,5 c 2,-5 8,-3 10,0 l 0,5 -10,0"/>
        <path d="M  20,5 c 2, 3 8,-8 10,0 l 0,5 -10,0"/>
        <path d="M  30,5 c 2, 8 8,-8 10,0 l 0,5 -10,0"/>
        <path d="M  40,5 c 2, 8 8, 3 10,0 l 0,5 -10,0"/>
        <path d="M  50,5 c 2,-3 8,-2 10,0 l 0,5 -10,0"/>
        <path d="M  60,5 c 2, 2 8, 2 10,0 l 0,5 -10,0"/>
        <path d="M  70,5 c 2,-2 8, 7 10,0 l 0,5 -10,0"/>
        <path d="M  80,5 c 2,-7 8, 8 10,0 l 0,5 -10,0"/>
        <path d="M  90,5 c 2,-8 8,-1 10,0 l 0,5 -10,0"/>
        <path d="M 100,5 c 2, 1 8, 7 10,0 l 0,5 -10,0"/>
        <path d="M 110,5 c 2,-7 8,-4 10,0 l 0,5 -10,0"/>
        <path d="M 120,5 c 2, 4 8, 6 10,0 l 0,5 -10,0"/>
        <path d="M 130,5 c 2,-6 8, 1 10,0 l 0,5 -10,0"/>
        <path d="M 140,5 c 2,-1 8,-4 10,0 l 0,5 -10,0"/>
        <path d="M 150,5 c 2, 4 8, 7 10,0 l 0,5 -10,0"/>
    </g>
    <g transform="translate(10, 30)">
        <path d="M   0,5 c 2, 8 8,-8 10,0 l 0,5 -10,0"/>
        <path d="M  10,5 c 2, 8 8, 3 10,0 l 0,5 -10,0"/>
        <path d="M  20,5 c 2,-3 8,-2 10,0 l 0,5 -10,0"/>
        <path d="M  30,5 c 2, 2 8, 2 10,0 l 0,5 -10,0"/>
        <path d="M  40,5 c 2,-2 8, 7 10,0 l 0,5 -10,0"/>
        <path d="M  50,5 c 2,-7 8, 8 10,0 l 0,5 -10,0"/>
        <path d="M  60,5 c 2,-8 8,-1 10,0 l 0,5 -10,0"/>
        <path d="M  70,5 c 2, 1 8, 7 10,0 l 0,5 -10,0"/>
        <path fill="SpringGreen" d="M 80,10 l 80,0 0,-13"/>
        />
    </g>
    <g transform="translate(10, 50)">
        <path fill="LightCoral" d="M 0,10 l 40,0 0,-9 -40,9"/>
        <path d="M  40,5 c 2, 8 8, 3 10,0 l 0,5 -10,0"/>
        <path d="M  50,5 c 2,-3 8, 2 10,0 l 0,5 -10,0"/>
        <path d="M  60,5 c 2,-2 8, 7 10,0 l 0,5 -10,0"/>
        <path d="M  70,5 c 2,-7 8, 7 10,0 l 0,5 -10,0"/>
        <path fill="SpringGreen" d="M 80,10 l 80,0 0,-13"/>
        />
    </g>
    <g transform="translate(10, 70)">
        <path d="M   0,5 c 2, 8 8, 3 10,0 l 0,5 -10,0"/>
        <path d="M  10,5 c 2,-3 8, 7 10,0 l 0,5 -10,0"/>
        <path d="M  20,5 c 2,-7 8, 2 10,0 l 0,5 -10,0"/>
        <path d="M  30,5 c 2,-2 8, 7 10,0 l 0,5 -10,0"/>
        <path fill="Yellow" d="M 40,10 l 120,0 0,-13"/>
        />
    </g>
    <g transform="translate(10, 90)">
        <path fill="LightCoral" d="M 0,10 l 20,0 0,-5"/>
        <path d="M  20,5 c 2,-2 8, 7 10,0 l 0,5 -10,0"/>
        <path d="M  30,5 c 2,-7 8, 2 10,0 l 0,5 -10,0"/>
        <path fill="SpringGreen" d="M 40,10 l 120,0 0,-13"/>
        />
    </g>
    <g transform="translate(10, 110)">
        <path d="M   0,5 c 2,-7 8, 2 10,0 l 0,5 -10,0"/>
        <path d="M  10,5 c 2,-2 8, 7 10,0 l 0,5 -10,0"/>
        <path fill="Yellow" d="M 20,10 l 140,0 0,-13"/>
        />
    </g>
</svg>
